{"accessors" : [{"bufferView" : 0, "byteOffset" : 0, "componentType" : 5123, "count" : 74997, "type" : "SCALAR", "max" : [14742], "min" : [0]}, {"bufferView" : 1, "byteOffset" : 0, "componentType" : 5126, "count" : 14743, "type" : "VEC3", "max" : [0.2622279226779938, 1.4653555154800415, 0.22440975904464722], "min" : [-0.2638903856277466, -5.845297579298858E-08, -0.1821247935295105], "name" : "POSITION"}, {"bufferView" : 1, "byteOffset" : 12, "componentType" : 5126, "count" : 14743, "type" : "VEC2", "max" : [0.9858627319335938, 1.9999892711639404], "min" : [5.5164182413136587E-05, 1.0000622272491455], "name" : "TEXCOORD_0"}], "asset" : {"generator" : "Aspose.3D 24.6.0", "version" : "2.0"}, "buffers" : [{"uri" : "data:application/octet-stream;base64,", "byteLength" : 444864}], "bufferViews" : [{"buffer" : 0, "byteOffset" : 0, "byteLength" : 149996, "target" : 34963}, {"buffer" : 0, "byteOffset" : 150000, "byteLength" : 294860, "byteStride" : 20, "target" : 34962}], "images" : [{"uri" : "data:image/jpeg;base64,"}, {"uri" : "data:image/jpeg;base64,"}, {"uri" : "data:image/jpeg;base64,"}], "materials" : [{"pbrMetallicRoughness" : {"baseColorFactor" : [1, 1, 1, 1], "baseColorTexture" : {"index" : 2, "texCoord" : 0}, "metallicFactor" : 0, "roughnessFactor" : 1}, "normalTexture" : {"index" : 0, "texCoord" : 0, "scale" : 1}, "occlusionTexture" : {"index" : 1, "texCoord" : 0, "strength" : 0}, "emissiveFactor" : [0, 0, 0], "alphaMode" : "OPAQUE", "doubleSided" : false}], "meshes" : [{"primitives" : [{"attributes" : {"POSITION" : 1, "TEXCOORD_0" : 2}, "indices" : 0, "material" : 0, "mode" : 4}]}], "nodes" : [{"mesh" : 0, "name" : "Node #0"}], "samplers" : [{"magFilter" : 9729, "minFilter" : 9729, "wrapS" : 10497, "wrapT" : 10497}, {"magFilter" : 9729, "minFilter" : 9729, "wrapS" : 10497, "wrapT" : 10497}, {"magFilter" : 9729, "minFilter" : 9729, "wrapS" : 10497, "wrapT" : 10497}], "scene" : 0, "scenes" : [{"nodes" : [0]}], "textures" : [{"sampler" : 0, "source" : 0, "name" : ""}, {"sampler" : 1, "source" : 1, "name" : ""}, {"sampler" : 2, "source" : 2, "name" : ""}]}