<svg xmlns="http://www.w3.org/2000/svg" version="1.1" xmlns:xlink="http://www.w3.org/1999/xlink" xmlns:svgjs="http://svgjs.dev/svgjs" width="2000" height="1500" viewBox="0 0 2000 1500"><rect width="2000" height="1500" fill="#000000"></rect><g transform="matrix(0.75,0,0,0.75,249.090909090909,282.7536437246963)"><svg viewBox="0 0 396 247" data-background-color="#2f5651" preserveAspectRatio="xMidYMid meet" height="1247" width="2000" xmlns="http://www.w3.org/2000/svg" xmlns:xlink="http://www.w3.org/1999/xlink"><g id="tight-bounds" transform="matrix(1,0,0,1,0.2400000000000091,-0.09999999999999432)"><svg viewBox="0 0 395.52 247.2" height="247.2" width="395.52"><g><svg></svg></g><g><svg viewBox="0 0 395.52 247.2" height="247.2" width="395.52"><g transform="matrix(1,0,0,1,113.55563534482759,47.215199999999996)"><svg viewBox="0 0 168.4087293103448 152.7696" height="152.7696" width="168.4087293103448"><g><svg viewBox="0 0 168.4087293103448 152.7696" height="152.7696" width="168.4087293103448"><g><svg viewBox="0 0 168.4087293103448 152.7696" height="152.7696" width="168.4087293103448"><g><svg viewBox="0 0 168.4087293103448 152.7696" height="152.7696" width="168.4087293103448"><g id="textblocktransform"><svg viewBox="0 0 168.4087293103448 152.7696" height="152.7696" width="168.4087293103448" id="textblock"><g><svg viewBox="0 0 168.4087293103448 152.7696" height="152.7696" width="168.4087293103448"><g transform="matrix(1,0,0,1,0,0)"><svg width="168.4087293103448" viewBox="0.15 -33.95 51.15 46.400000000000006" height="152.7696" data-palette-color="#bfd7b7"><path d="M10.7-27.45L10.7-6.25Q10.7-2.75 10.38-0.05 10.05 2.65 9.05 4.83 8.05 7 6.13 8.85 4.2 10.7 1 12.45L1 12.45Q0.65 12.25 0.45 11.9 0.25 11.55 0.15 11.15L0.15 11.15Q2.05 9.55 3.35 7.8 4.65 6.05 5.33 3.75 6 1.45 6-1.7L6-1.7 6-27.45Q6-29.15 5.7-30.05 5.4-30.95 4.65-31.35 3.9-31.75 2.55-31.8L2.55-31.8Q2.4-32.2 2.35-32.75 2.3-33.3 2.3-33.95L2.3-33.95Q3.05-33.9 4.03-33.88 5-33.85 6.13-33.83 7.25-33.8 8.35-33.8L8.35-33.8Q10-33.8 11.75-33.85 13.5-33.9 14.4-33.95L14.4-33.95Q14.4-33.3 14.35-32.75 14.3-32.2 14.15-31.8L14.15-31.8Q12.9-31.75 12.13-31.35 11.35-30.95 11.03-30.05 10.7-29.15 10.7-27.45L10.7-27.45ZM39.2 0.15L39.2 0.15Q39.2-0.55 39.25-1.07 39.3-1.6 39.45-2L39.45-2Q40.8-2.1 41.55-2.48 42.3-2.85 42.6-3.78 42.9-4.7 42.9-6.35L42.9-6.35 42.9-27.45Q42.9-29.15 42.6-30.05 42.3-30.95 41.55-31.35 40.8-31.75 39.45-31.8L39.45-31.8Q39.3-32.2 39.25-32.75 39.2-33.3 39.2-33.95L39.2-33.95Q40.15-33.9 41.12-33.88 42.1-33.85 43.15-33.83 44.2-33.8 45.25-33.8L45.25-33.8Q46.35-33.8 47.35-33.83 48.35-33.85 49.32-33.88 50.3-33.9 51.3-33.95L51.3-33.95Q51.3-33.3 51.25-32.75 51.2-32.2 51.05-31.8L51.05-31.8Q49.75-31.75 48.97-31.35 48.2-30.95 47.9-30.05 47.6-29.15 47.6-27.45L47.6-27.45 47.6-6.35Q47.6-4.7 47.9-3.78 48.2-2.85 48.97-2.48 49.75-2.1 51.05-2L51.05-2Q51.2-1.6 51.25-1.07 51.3-0.55 51.3 0.15L51.3 0.15Q49.8 0.05 48.25 0.03 46.7 0 45.25 0L45.25 0Q43.8 0 42.15 0.03 40.5 0.05 39.2 0.15ZM19.25 0.15L19.25 0.15Q19.25-0.55 19.3-1.07 19.35-1.6 19.5-2L19.5-2Q20.85-2.1 21.6-2.48 22.35-2.85 22.65-3.78 22.95-4.7 22.95-6.35L22.95-6.35 22.95-27.45Q22.95-29.15 22.65-30.05 22.35-30.95 21.6-31.35 20.85-31.75 19.5-31.8L19.5-31.8Q19.35-32.2 19.3-32.75 19.25-33.3 19.25-33.95L19.25-33.95Q20.2-33.9 21.17-33.88 22.15-33.85 23.2-33.83 24.25-33.8 25.3-33.8L25.3-33.8Q26.4-33.8 27.4-33.83 28.4-33.85 29.37-33.88 30.35-33.9 31.35-33.95L31.35-33.95Q31.35-33.3 31.3-32.75 31.25-32.2 31.1-31.8L31.1-31.8Q29.8-31.75 29.02-31.35 28.25-30.95 27.95-30.05 27.65-29.15 27.65-27.45L27.65-27.45 27.65-6.35Q27.65-4.7 27.95-3.78 28.25-2.85 29.02-2.48 29.8-2.1 31.1-2L31.1-2Q31.25-1.6 31.3-1.07 31.35-0.55 31.35 0.15L31.35 0.15Q29.85 0.05 28.3 0.03 26.75 0 25.3 0L25.3 0Q23.85 0 22.2 0.03 20.55 0.05 19.25 0.15ZM27.4-15.95L27.4-15.95 27.4-18.4 43.15-18.4 43.15-16.25Q41.75-16.25 39.65-16.25 37.55-16.25 35.27-16.23 33-16.2 30.92-16.13 28.85-16.05 27.4-15.95Z" opacity="1" transform="matrix(1,0,0,1,0,0)" fill="#ffffff" class="wordmark-text-0" data-fill-palette-color="primary" id="text-0"></path></svg></g></svg></g></svg></g></svg></g></svg></g></svg></g></svg></g><path d="M99.663 41.215L99.663 0 346.863 0 346.863 247.2 99.663 247.2 99.663 205.985 113.44 205.985 113.44 233.423 333.086 233.423 333.086 13.777 113.44 13.777 113.44 41.215Z" fill="#ffffff" stroke="transparent" data-fill-palette-color="tertiary"></path></svg></g><defs></defs></svg><rect width="395.52" height="247.2" fill="none" stroke="none" visibility="hidden"></rect></g></svg></g></svg>