<svg xmlns="http://www.w3.org/2000/svg" version="1.1" xmlns:xlink="http://www.w3.org/1999/xlink" xmlns:svgjs="http://svgjs.dev/svgjs" width="2000" height="1247" viewBox="0 0 2000 1247"><g transform="matrix(1,0,0,1,-1.2121212121212466,0.504858299595071)"><svg viewBox="0 0 396 247" data-background-color="#692729" preserveAspectRatio="xMidYMid meet" height="1247" width="2000" xmlns="http://www.w3.org/2000/svg" xmlns:xlink="http://www.w3.org/1999/xlink"><g id="tight-bounds" transform="matrix(1,0,0,1,0.2400000000000091,-0.09999999999999432)"><svg viewBox="0 0 395.52 247.2" height="247.2" width="395.52"><g><svg></svg></g><g><svg viewBox="0 0 395.52 247.2" height="247.2" width="395.52"><g transform="matrix(1,0,0,1,148.18648366762176,47.215199999999996)"><svg viewBox="0 0 99.14703266475645 152.7696" height="152.7696" width="99.14703266475645"><g><svg viewBox="0 0 99.14703266475645 152.7696" height="152.7696" width="99.14703266475645"><g><svg viewBox="0 0 99.14703266475645 152.7696" height="152.7696" width="99.14703266475645"><g><svg viewBox="0 0 99.14703266475645 152.7696" height="152.7696" width="99.14703266475645"><g id="textblocktransform"><svg viewBox="0 0 99.14703266475645 152.7696" height="152.7696" width="99.14703266475645" id="textblock"><g><svg viewBox="0 0 99.14703266475645 152.7696" height="152.7696" width="99.14703266475645"><g transform="matrix(1,0,0,1,0,0)"><svg width="99.14703266475645" viewBox="5.05 -34.9 22.65 34.9" height="152.7696" data-palette-color="#915eff"><path d="M17.45 0L5.05 0 5.05-4.5 17.5-4.5Q19.9-4.5 21.15-5.93 22.4-7.35 22.4-9.8L22.4-9.8 22.4-34.9 27.7-34.9 27.7-10.05Q27.7-7.65 27.05-5.78 26.4-3.9 25.13-2.63 23.85-1.35 21.93-0.68 20 0 17.45 0L17.45 0ZM9.1-30.4L9.1-34.9 27.3-34.9 27.3-30.4 9.1-30.4Z" opacity="1" transform="matrix(1,0,0,1,0,0)" fill="#915eff" class="wordmark-text-0" data-fill-palette-color="primary" id="text-0"></path></svg></g></svg></g></svg></g></svg></g></svg></g></svg></g></svg></g><path d="M65.032 41.215L65.032 0 312.232 0 312.232 247.2 65.032 247.2 65.032 205.985 78.809 205.985 78.809 233.423 298.455 233.423 298.455 13.777 78.809 13.777 78.809 41.215Z" fill="#915eff" stroke="transparent" data-fill-palette-color="tertiary"></path></svg></g><defs></defs></svg><rect width="395.52" height="247.2" fill="none" stroke="none" visibility="hidden"></rect></g></svg></g></svg>